<svg width="66" height="66" viewBox="0 0 66 66" fill="none" xmlns="http://www.w3.org/2000/svg">
<circle cx="32.8872" cy="33.1888" r="32.5" fill="white"/>
<path fill-rule="evenodd" clip-rule="evenodd" d="M48.7958 49.7871C48.7958 49.7871 51.9775 49.7871 51.9775 46.6676C51.9775 43.548 48.7958 34.1894 32.8872 34.1894C16.9786 34.1894 13.7969 43.548 13.7969 46.6676C13.7969 49.7871 16.9786 49.7871 16.9786 49.7871H48.7958ZM16.9945 46.8423V46.836V46.8423ZM17.0486 46.6676H48.7258C48.7407 46.6659 48.7556 46.6638 48.7704 46.6613L48.7958 46.6551C48.7926 45.8877 48.3058 43.5792 46.1486 41.4642C44.0741 39.4303 40.1702 37.309 32.8872 37.309C25.6011 37.309 21.7003 39.4303 19.6258 41.4642C17.4686 43.5792 16.985 45.8877 16.9786 46.6551C17.0019 46.6595 17.0252 46.6637 17.0486 46.6676ZM48.7831 46.8423V46.836V46.8423ZM32.8872 27.9504C34.5749 27.9504 36.1935 27.2931 37.3869 26.123C38.5802 24.953 39.2507 23.366 39.2507 21.7113C39.2507 20.0566 38.5802 18.4697 37.3869 17.2996C36.1935 16.1296 34.5749 15.4723 32.8872 15.4723C31.1995 15.4723 29.581 16.1296 28.3876 17.2996C27.1942 18.4697 26.5238 20.0566 26.5238 21.7113C26.5238 23.366 27.1942 24.953 28.3876 26.123C29.581 27.2931 31.1995 27.9504 32.8872 27.9504ZM42.4324 21.7113C42.4324 24.1934 41.4267 26.5738 39.6367 28.3288C37.8466 30.0839 35.4188 31.0699 32.8872 31.0699C30.3557 31.0699 27.9278 30.0839 26.1378 28.3288C24.3477 26.5738 23.3421 24.1934 23.3421 21.7113C23.3421 19.2293 24.3477 16.8489 26.1378 15.0938C27.9278 13.3387 30.3557 12.3527 32.8872 12.3527C35.4188 12.3527 37.8466 13.3387 39.6367 15.0938C41.4267 16.8489 42.4324 19.2293 42.4324 21.7113Z" fill="black"/>
</svg>
